<?xml version="1.0" encoding="UTF-8"?>
<!DOCTYPE svg PUBLIC "-//W3C//DTD SVG 1.1//EN" "http://www.w3.org/Graphics/SVG/1.1/DTD/svg11.dtd">
<svg xmlns="http://www.w3.org/2000/svg" version="1.1" width="580px" height="580px" style="shape-rendering:geometricPrecision; text-rendering:geometricPrecision; image-rendering:optimizeQuality; fill-rule:evenodd; clip-rule:evenodd" xmlns:xlink="http://www.w3.org/1999/xlink">
<g><path style="opacity:1" fill="#1b1b1b" d="M 453.5,82.5 C 456.187,82.6641 458.854,82.4974 461.5,82C 462.252,81.3292 462.586,80.4959 462.5,79.5C 470.228,67.5987 478.561,56.0987 487.5,45C 493.391,44.6378 494.891,47.1378 492,52.5C 484.5,62.6667 477,72.8333 469.5,83C 474.563,85.2023 479.563,87.369 484.5,89.5C 496.247,79.2567 507.58,68.4233 518.5,57C 519.793,56.51 521.127,56.3433 522.5,56.5C 524.942,58.1393 525.109,60.1393 523,62.5C 511.652,73.6807 500.486,85.014 489.5,96.5C 492.519,100.539 495.019,104.872 497,109.5C 507.167,102 517.333,94.5 527.5,87C 531.337,84.6142 534.004,85.6142 535.5,90C 534.547,91.9552 533.213,93.6218 531.5,95C 520.361,102.639 509.361,110.473 498.5,118.5C 497.84,125.035 496.673,131.368 495,137.5C 519.546,125.477 544.046,113.31 568.5,101C 573.707,100.378 575.374,102.544 573.5,107.5C 546.376,120.896 519.376,134.562 492.5,148.5C 499.072,157.81 504.738,167.643 509.5,178C 507.593,182.356 504.426,183.522 500,181.5C 494.761,171.611 488.761,162.278 482,153.5C 470.428,159.58 458.262,161.08 445.5,158C 442.609,156.726 439.942,155.226 437.5,153.5C 437.027,152.094 436.027,151.427 434.5,151.5C 422.304,141.759 417.471,129.093 420,113.5C 421.331,107.836 423.498,102.503 426.5,97.5C 366.222,55.6172 300.222,43.1172 228.5,60C 160.026,79.1523 108.692,119.819 74.5,182C 68,183.5 65.5,181 67,174.5C 71.7752,165.261 77.2752,156.595 83.5,148.5C 84.9063,148.027 85.573,147.027 85.5,145.5C 129.752,85.8526 189.085,51.6859 263.5,43C 324.876,37.4671 380.709,52.3004 431,87.5C 444.605,60.6232 457.938,33.6232 471,6.5C 473.333,3.83333 475.667,3.83333 478,6.5C 478.667,8.16667 478.667,9.83333 478,11.5C 466.438,35.6231 454.605,59.6231 442.5,83.5C 442.833,83.8333 443.167,84.1667 443.5,84.5C 446.708,83.198 450.041,82.5313 453.5,82.5 Z M 455.5,89.5 C 478.764,90.9289 489.931,103.262 489,126.5C 483.621,144.773 471.454,152.94 452.5,151C 433.005,144.852 425.172,131.685 429,111.5C 433.778,99.217 442.612,91.8836 455.5,89.5 Z M 274.5,163.5 C 274.209,164.649 273.376,165.316 272,165.5C 270.624,165.316 269.791,164.649 269.5,163.5C 270.481,160.579 271.315,157.579 272,154.5C 272.685,157.579 273.519,160.579 274.5,163.5 Z M 350.5,163.5 C 350.209,164.649 349.376,165.316 348,165.5C 346.624,165.316 345.791,164.649 345.5,163.5C 346.481,160.579 347.315,157.579 348,154.5C 348.685,157.579 349.519,160.579 350.5,163.5 Z"/></g>
<g><path style="opacity:1" fill="#4d4d4d" d="M 522.5,56.5 C 521.127,56.3433 519.793,56.51 518.5,57C 507.58,68.4233 496.247,79.2567 484.5,89.5C 495.298,78.2016 506.298,67.0349 517.5,56C 519.387,55.2204 521.054,55.3871 522.5,56.5 Z"/></g>
<g><path style="opacity:1" fill="#949494" d="M 462.5,79.5 C 462.586,80.4959 462.252,81.3292 461.5,82C 458.854,82.4974 456.187,82.6641 453.5,82.5C 456.606,81.9534 459.606,80.9534 462.5,79.5 Z"/></g>
<g><path style="opacity:1" fill="#e34a2e" d="M 319.5,161.5 C 319.427,163.027 320.094,164.027 321.5,164.5C 324.206,171.221 322.206,176.054 315.5,179C 309.076,180.393 303.243,179.227 298,175.5C 297.837,173.613 298.671,172.113 300.5,171C 303.388,171.677 306.388,172.51 309.5,173.5C 314.038,172.608 315.038,170.441 312.5,167C 308.469,165.568 304.636,163.734 301,161.5C 296.698,151.774 299.865,146.44 310.5,145.5C 314.176,145.337 317.509,146.337 320.5,148.5C 321.5,151.242 320.5,153.242 317.5,154.5C 315.58,153.024 313.413,152.024 311,151.5C 307.993,152.18 307.16,153.846 308.5,156.5C 312.315,157.987 315.981,159.654 319.5,161.5 Z"/></g>
<g><path style="opacity:1" fill="#888888" d="M 85.5,145.5 C 85.573,147.027 84.9063,148.027 83.5,148.5C 83.427,146.973 84.0937,145.973 85.5,145.5 Z"/></g>
<g><path style="opacity:1" fill="#de381e" d="M 236.5,165.5 C 238.202,171.959 238.535,171.959 237.5,165.5C 237.5,159.167 237.5,152.833 237.5,146.5C 239.833,146.5 242.167,146.5 244.5,146.5C 244.5,157.167 244.5,167.833 244.5,178.5C 240.833,178.5 237.167,178.5 233.5,178.5C 231.504,172.178 229.504,165.845 227.5,159.5C 227.108,157.821 226.608,156.154 226,154.5C 225.199,157.367 225.366,160.034 226.5,162.5C 226.5,167.833 226.5,173.167 226.5,178.5C 224.167,178.5 221.833,178.5 219.5,178.5C 219.5,167.833 219.5,157.167 219.5,146.5C 223.106,146.211 226.606,146.544 230,147.5C 232.272,153.485 234.439,159.485 236.5,165.5 Z"/></g>
<g><path style="opacity:1" fill="#e03f23" d="M 266.5,146.5 C 270.167,146.5 273.833,146.5 277.5,146.5C 280.5,157.167 283.5,167.833 286.5,178.5C 283.5,178.5 280.5,178.5 277.5,178.5C 277.326,176.139 276.993,173.806 276.5,171.5C 273.5,171.5 270.5,171.5 267.5,171.5C 267.326,173.861 266.993,176.194 266.5,178.5C 263.428,178.817 260.428,178.484 257.5,177.5C 260.969,167.289 263.969,156.955 266.5,146.5 Z M 274.5,163.5 C 274.209,164.649 273.376,165.316 272,165.5C 270.624,165.316 269.791,164.649 269.5,163.5C 270.481,160.579 271.315,157.579 272,154.5C 272.685,157.579 273.519,160.579 274.5,163.5 Z"/></g>
<g><path style="opacity:1" fill="#e03e23" d="M 342.5,146.5 C 346.167,146.5 349.833,146.5 353.5,146.5C 356.031,156.955 359.031,167.289 362.5,177.5C 359.572,178.484 356.572,178.817 353.5,178.5C 353.007,176.194 352.674,173.861 352.5,171.5C 349.5,171.5 346.5,171.5 343.5,171.5C 343.007,173.806 342.674,176.139 342.5,178.5C 339.5,178.5 336.5,178.5 333.5,178.5C 336.5,167.833 339.5,157.167 342.5,146.5 Z M 350.5,163.5 C 350.209,164.649 349.376,165.316 348,165.5C 346.624,165.316 345.791,164.649 345.5,163.5C 346.481,160.579 347.315,157.579 348,154.5C 348.685,157.579 349.519,160.579 350.5,163.5 Z"/></g>
<g><path style="opacity:1" fill="#888888" d="M 434.5,151.5 C 436.027,151.427 437.027,152.094 437.5,153.5C 435.973,153.573 434.973,152.906 434.5,151.5 Z"/></g>
<g><path style="opacity:1" fill="#eb7866" d="M 227.5,159.5 C 226.596,160.209 226.263,161.209 226.5,162.5C 225.366,160.034 225.199,157.367 226,154.5C 226.608,156.154 227.108,157.821 227.5,159.5 Z"/></g>
<g><path style="opacity:1" fill="#f7a595" d="M 319.5,161.5 C 320.906,161.973 321.573,162.973 321.5,164.5C 320.094,164.027 319.427,163.027 319.5,161.5 Z"/></g>
<g><path style="opacity:1" fill="#ed8f82" d="M 269.5,163.5 C 269.791,164.649 270.624,165.316 272,165.5C 273.376,165.316 274.209,164.649 274.5,163.5C 275.404,164.209 275.737,165.209 275.5,166.5C 273.167,166.5 270.833,166.5 268.5,166.5C 268.263,165.209 268.596,164.209 269.5,163.5 Z"/></g>
<g><path style="opacity:1" fill="#ed9083" d="M 345.5,163.5 C 345.791,164.649 346.624,165.316 348,165.5C 349.376,165.316 350.209,164.649 350.5,163.5C 351.404,164.209 351.737,165.209 351.5,166.5C 349.167,166.5 346.833,166.5 344.5,166.5C 344.263,165.209 344.596,164.209 345.5,163.5 Z"/></g>
<g><path style="opacity:1" fill="#ef9284" d="M 236.5,165.5 C 236.833,165.5 237.167,165.5 237.5,165.5C 238.535,171.959 238.202,171.959 236.5,165.5 Z"/></g>
<g><path style="opacity:1" fill="#141414" d="M 90.5,269.5 C 90.427,271.027 91.0937,272.027 92.5,272.5C 94.7458,274.649 96.2458,277.316 97,280.5C 97.6667,292.833 97.6667,305.167 97,317.5C 94.0764,326.233 87.9097,330.567 78.5,330.5C 67.4367,330.503 61.1033,325.17 59.5,314.5C 59.5,304.167 59.5,293.833 59.5,283.5C 63.1667,283.5 66.8333,283.5 70.5,283.5C 70.3335,292.839 70.5002,302.173 71,311.5C 72.8294,317.158 76.6627,318.992 82.5,317C 83.3333,316.167 84.1667,315.333 85,314.5C 85.6667,304.5 85.6667,294.5 85,284.5C 78.7832,275.277 71.4499,266.944 63,259.5C 62,257.833 61,256.167 60,254.5C 58.4213,242.892 58.088,231.225 59,219.5C 59.4335,215.312 60.9335,211.645 63.5,208.5C 65.0269,208.573 66.0269,207.906 66.5,206.5C 67.6002,205.442 68.9336,204.608 70.5,204C 75.8333,203.333 81.1667,203.333 86.5,204C 92.4449,206.027 95.9449,210.194 97,216.5C 97.4998,226.494 97.6665,236.494 97.5,246.5C 93.8333,246.5 90.1667,246.5 86.5,246.5C 86.8071,237.448 86.3071,228.448 85,219.5C 82.0189,215.304 78.1856,214.471 73.5,217C 72.8742,217.75 72.3742,218.584 72,219.5C 71.3333,229.167 71.3333,238.833 72,248.5C 77.631,255.965 83.7977,262.965 90.5,269.5 Z"/></g>
<g><path style="opacity:1" fill="#111111" d="M 238.5,206.5 C 238.427,208.027 239.094,209.027 240.5,209.5C 242.694,211.221 243.861,213.555 244,216.5C 244.5,226.494 244.666,236.494 244.5,246.5C 240.833,246.5 237.167,246.5 233.5,246.5C 233.666,237.494 233.5,228.494 233,219.5C 229.134,214.584 224.801,214.251 220,218.5C 218.855,234.436 218.355,250.436 218.5,266.5C 218.667,281.5 218.833,296.5 219,311.5C 220.829,317.158 224.663,318.992 230.5,317C 231.883,315.729 232.883,314.229 233.5,312.5C 234.494,303.014 234.827,293.348 234.5,283.5C 237.833,283.5 241.167,283.5 244.5,283.5C 244.667,294.838 244.5,306.172 244,317.5C 241.447,326.456 235.447,330.789 226,330.5C 222.243,329.971 218.743,328.971 215.5,327.5C 215.027,326.094 214.027,325.427 212.5,325.5C 209.676,323.2 207.843,320.2 207,316.5C 206.333,283.167 206.333,249.833 207,216.5C 209.661,206.99 215.994,202.324 226,202.5C 230.544,202.9 234.711,204.234 238.5,206.5 Z"/></g>
<g><path style="opacity:1" fill="#151515" d="M 492.5,326.5 C 492.027,325.094 491.027,324.427 489.5,324.5C 486.57,320.708 485.237,316.375 485.5,311.5C 485.5,302.167 485.5,292.833 485.5,283.5C 489.167,283.5 492.833,283.5 496.5,283.5C 496.334,292.173 496.5,300.84 497,309.5C 497.652,316.813 501.486,319.313 508.5,317C 510.708,315.164 512.042,312.831 512.5,310C 511.681,301.245 511.181,292.411 511,283.5C 505.072,275.568 498.405,268.235 491,261.5C 488.938,259.099 487.271,256.433 486,253.5C 484.522,242.873 484.188,232.206 485,221.5C 485.998,209.168 492.664,203.168 505,203.5C 514.577,202.28 520.577,206.28 523,215.5C 523.5,225.828 523.666,236.161 523.5,246.5C 519.833,246.5 516.167,246.5 512.5,246.5C 512.886,237.1 512.386,227.766 511,218.5C 506.291,214.231 501.958,214.564 498,219.5C 497.333,229.167 497.333,238.833 498,248.5C 506,257.833 514,267.167 522,276.5C 524.902,290.421 525.235,304.421 523,318.5C 519.96,326.701 513.96,330.701 505,330.5C 502.205,329.815 499.372,329.315 496.5,329C 494.934,328.392 493.6,327.558 492.5,326.5 Z"/></g>
<g><path style="opacity:1" fill="#515151" d="M 183.5,212.5 C 182.532,210.393 182.198,208.059 182.5,205.5C 178.167,205.5 173.833,205.5 169.5,205.5C 169.737,206.791 169.404,207.791 168.5,208.5C 168.5,207.167 168.5,205.833 168.5,204.5C 173.5,204.5 178.5,204.5 183.5,204.5C 183.5,207.167 183.5,209.833 183.5,212.5 Z"/></g>
<g><path style="opacity:1" fill="#454545" d="M 354.5,205.5 C 350.167,205.5 345.833,205.5 341.5,205.5C 341.737,206.791 341.404,207.791 340.5,208.5C 340.5,207.167 340.5,205.833 340.5,204.5C 345.363,204.181 350.03,204.514 354.5,205.5 Z"/></g>
<g><path style="opacity:1" fill="#7d7d7d" d="M 137.5,205.5 C 128.833,205.5 120.167,205.5 111.5,205.5C 111.5,246.167 111.5,286.833 111.5,327.5C 115.167,327.5 118.833,327.5 122.5,327.5C 118.702,328.483 114.702,328.817 110.5,328.5C 110.5,287.167 110.5,245.833 110.5,204.5C 119.682,204.173 128.682,204.507 137.5,205.5 Z"/></g>
<g><path style="opacity:1" fill="#0a0a0a" d="M 137.5,205.5 C 143.159,206.312 147.326,209.312 150,214.5C 151.595,228.444 151.928,242.444 151,256.5C 149.601,262.9 145.767,267.066 139.5,269C 133.843,269.499 128.176,269.666 122.5,269.5C 122.5,288.833 122.5,308.167 122.5,327.5C 118.833,327.5 115.167,327.5 111.5,327.5C 111.5,286.833 111.5,246.167 111.5,205.5C 120.167,205.5 128.833,205.5 137.5,205.5 Z M 137.5,219.5 C 137.932,220.71 138.599,221.71 139.5,222.5C 139.666,232.506 139.5,242.506 139,252.5C 138.215,254.286 137.049,255.786 135.5,257C 131.179,257.499 126.846,257.666 122.5,257.5C 122.5,243.833 122.5,230.167 122.5,216.5C 126.182,216.335 129.848,216.501 133.5,217C 135.066,217.608 136.4,218.442 137.5,219.5 Z"/></g>
<g><path style="opacity:1" fill="#131313" d="M 183.5,212.5 C 189.058,250.624 194.058,288.957 198.5,327.5C 194.173,327.984 190.173,327.318 186.5,325.5C 185.506,319.544 184.839,313.544 184.5,307.5C 178.5,307.5 172.5,307.5 166.5,307.5C 165.823,314.253 164.823,320.919 163.5,327.5C 159.629,327.815 155.962,327.482 152.5,326.5C 157.185,287.041 162.518,247.708 168.5,208.5C 169.404,207.791 169.737,206.791 169.5,205.5C 173.833,205.5 178.167,205.5 182.5,205.5C 182.198,208.059 182.532,210.393 183.5,212.5 Z M 174.5,241.5 C 175.167,241.833 175.833,242.167 176.5,242.5C 177.849,259.287 179.849,275.954 182.5,292.5C 182.5,293.833 182.5,295.167 182.5,296.5C 177.5,296.5 172.5,296.5 167.5,296.5C 170.567,278.299 172.9,259.966 174.5,241.5 Z"/></g>
<g><path style="opacity:1" fill="#080808" d="M 258.5,204.5 C 269.415,204.18 280.248,204.513 291,205.5C 291.789,209.091 291.622,212.591 290.5,216C 283.508,216.5 276.508,216.666 269.5,216.5C 269.5,230.833 269.5,245.167 269.5,259.5C 274.167,259.5 278.833,259.5 283.5,259.5C 283.5,263.167 283.5,266.833 283.5,270.5C 278.637,270.181 273.97,270.514 269.5,271.5C 269.5,286.5 269.5,301.5 269.5,316.5C 276.313,317.491 283.313,317.825 290.5,317.5C 290.5,320.833 290.5,324.167 290.5,327.5C 279.833,327.5 269.167,327.5 258.5,327.5C 258.5,286.5 258.5,245.5 258.5,204.5 Z"/></g>
<g><path style="opacity:1" fill="#131313" d="M 354.5,205.5 C 360.14,243.948 365.14,282.615 369.5,321.5C 369.5,323.5 369.5,325.5 369.5,327.5C 366.167,327.5 362.833,327.5 359.5,327.5C 359.737,326.209 359.404,325.209 358.5,324.5C 357.623,318.982 356.623,313.482 355.5,308C 349.843,307.501 344.176,307.334 338.5,307.5C 337.66,314.226 336.66,320.893 335.5,327.5C 331.351,328.08 327.684,327.414 324.5,325.5C 329.264,286.384 334.597,247.384 340.5,208.5C 341.404,207.791 341.737,206.791 341.5,205.5C 345.833,205.5 350.167,205.5 354.5,205.5 Z M 346.5,240.5 C 347.167,241.5 347.833,242.5 348.5,243.5C 350.009,260.24 352.009,276.907 354.5,293.5C 354.5,294.5 354.5,295.5 354.5,296.5C 349.5,296.5 344.5,296.5 339.5,296.5C 342.488,277.928 344.822,259.261 346.5,240.5 Z"/></g>
<g><path style="opacity:1" fill="#646464" d="M 408.5,205.5 C 399.833,205.5 391.167,205.5 382.5,205.5C 382.5,246.167 382.5,286.833 382.5,327.5C 385.833,327.5 389.167,327.5 392.5,327.5C 392.17,307.993 392.503,288.659 393.5,269.5C 393.5,289.167 393.5,308.833 393.5,328.5C 389.5,328.5 385.5,328.5 381.5,328.5C 381.5,287.167 381.5,245.833 381.5,204.5C 390.682,204.173 399.682,204.507 408.5,205.5 Z"/></g>
<g><path style="opacity:1" fill="#0c0c0c" d="M 408.5,205.5 C 415.74,206.905 420.24,211.238 422,218.5C 422.667,230.833 422.667,243.167 422,255.5C 420.874,261.268 417.707,265.435 412.5,268C 406.258,269.37 399.925,269.87 393.5,269.5C 392.503,288.659 392.17,307.993 392.5,327.5C 389.167,327.5 385.833,327.5 382.5,327.5C 382.5,286.833 382.5,246.167 382.5,205.5C 391.167,205.5 399.833,205.5 408.5,205.5 Z M 393.5,216.5 C 408.572,215.046 414.239,221.879 410.5,237C 410.596,242.913 410.096,248.746 409,254.5C 408.097,255.701 406.931,256.535 405.5,257C 401.514,257.499 397.514,257.666 393.5,257.5C 393.5,243.833 393.5,230.167 393.5,216.5 Z"/></g>
<g><path style="opacity:1" fill="#656565" d="M 460.5,205.5 C 451.833,205.5 443.167,205.5 434.5,205.5C 434.5,246.167 434.5,286.833 434.5,327.5C 437.833,327.5 441.167,327.5 444.5,327.5C 444.17,307.993 444.503,288.659 445.5,269.5C 445.5,289.167 445.5,308.833 445.5,328.5C 441.5,328.5 437.5,328.5 433.5,328.5C 433.5,287.167 433.5,245.833 433.5,204.5C 442.682,204.173 451.682,204.507 460.5,205.5 Z"/></g>
<g><path style="opacity:1" fill="#0b0b0b" d="M 460.5,205.5 C 467.74,206.905 472.24,211.238 474,218.5C 474.667,230.833 474.667,243.167 474,255.5C 472.874,261.268 469.707,265.435 464.5,268C 458.258,269.37 451.925,269.87 445.5,269.5C 444.503,288.659 444.17,307.993 444.5,327.5C 441.167,327.5 437.833,327.5 434.5,327.5C 434.5,286.833 434.5,246.167 434.5,205.5C 443.167,205.5 451.833,205.5 460.5,205.5 Z M 460.5,219.5 C 460.932,220.71 461.599,221.71 462.5,222.5C 462.666,232.506 462.5,242.506 462,252.5C 461.215,254.286 460.049,255.786 458.5,257C 454.179,257.499 449.846,257.666 445.5,257.5C 445.5,243.833 445.5,230.167 445.5,216.5C 449.182,216.335 452.848,216.501 456.5,217C 458.066,217.608 459.4,218.442 460.5,219.5 Z"/></g>
<g><path style="opacity:1" fill="#7c7c7c" d="M 66.5,206.5 C 66.0269,207.906 65.0269,208.573 63.5,208.5C 63.9731,207.094 64.9731,206.427 66.5,206.5 Z"/></g>
<g><path style="opacity:1" fill="#878787" d="M 238.5,206.5 C 239.906,206.973 240.573,207.973 240.5,209.5C 239.094,209.027 238.427,208.027 238.5,206.5 Z"/></g>
<g><path style="opacity:1" fill="#858585" d="M 137.5,219.5 C 139.048,219.821 139.715,220.821 139.5,222.5C 138.599,221.71 137.932,220.71 137.5,219.5 Z"/></g>
<g><path style="opacity:1" fill="#787878" d="M 460.5,219.5 C 462.048,219.821 462.715,220.821 462.5,222.5C 461.599,221.71 460.932,220.71 460.5,219.5 Z"/></g>
<g><path style="opacity:1" fill="#949494" d="M 176.5,242.5 C 175.833,242.167 175.167,241.833 174.5,241.5C 174.201,239.396 174.534,237.396 175.5,235.5C 176.474,237.743 176.808,240.076 176.5,242.5 Z"/></g>
<g><path style="opacity:1" fill="#848484" d="M 348.5,243.5 C 347.833,242.5 347.167,241.5 346.5,240.5C 346.338,238.473 346.505,236.473 347,234.5C 348.392,237.278 348.892,240.278 348.5,243.5 Z"/></g>
<g><path style="opacity:1" fill="#7f7f7f" d="M 90.5,269.5 C 91.9063,269.973 92.573,270.973 92.5,272.5C 91.0937,272.027 90.427,271.027 90.5,269.5 Z"/></g>
<g><path style="opacity:1" fill="#6e6e6e" d="M 283.5,259.5 C 284.483,263.298 284.817,267.298 284.5,271.5C 279.5,271.5 274.5,271.5 269.5,271.5C 273.97,270.514 278.637,270.181 283.5,270.5C 283.5,266.833 283.5,263.167 283.5,259.5 Z"/></g>
<g><path style="opacity:1" fill="#a6a6a6" d="M 70.5,283.5 C 66.8333,283.5 63.1667,283.5 59.5,283.5C 59.5,293.833 59.5,304.167 59.5,314.5C 58.5056,304.013 58.1722,293.346 58.5,282.5C 62.7016,282.183 66.7016,282.517 70.5,283.5 Z"/></g>
<g><path style="opacity:1" fill="#8f8f8f" d="M 244.5,283.5 C 241.167,283.5 237.833,283.5 234.5,283.5C 234.827,293.348 234.494,303.014 233.5,312.5C 233.5,302.5 233.5,292.5 233.5,282.5C 237.371,282.185 241.038,282.518 244.5,283.5 Z"/></g>
<g><path style="opacity:0.517" fill="#cfcfcf" d="M 496.5,283.5 C 492.833,283.5 489.167,283.5 485.5,283.5C 485.5,292.833 485.5,302.167 485.5,311.5C 484.506,302.014 484.173,292.348 484.5,282.5C 488.702,282.183 492.702,282.517 496.5,283.5 Z"/></g>
<g><path style="opacity:1" fill="#7c7c7c" d="M 182.5,292.5 C 183.451,293.919 183.784,295.585 183.5,297.5C 177.974,297.821 172.64,297.488 167.5,296.5C 172.5,296.5 177.5,296.5 182.5,296.5C 182.5,295.167 182.5,293.833 182.5,292.5 Z"/></g>
<g><path style="opacity:1" fill="#787878" d="M 354.5,293.5 C 355.434,294.568 355.768,295.901 355.5,297.5C 349.974,297.821 344.64,297.488 339.5,296.5C 344.5,296.5 349.5,296.5 354.5,296.5C 354.5,295.5 354.5,294.5 354.5,293.5 Z"/></g>
<g><path style="opacity:1" fill="#868686" d="M 489.5,324.5 C 491.027,324.427 492.027,325.094 492.5,326.5C 490.973,326.573 489.973,325.906 489.5,324.5 Z"/></g>
<g><path style="opacity:1" fill="#7d7d7d" d="M 212.5,325.5 C 214.027,325.427 215.027,326.094 215.5,327.5C 213.973,327.573 212.973,326.906 212.5,325.5 Z"/></g>
<g><path style="opacity:1" fill="#6f6f6f" d="M 152.5,326.5 C 155.962,327.482 159.629,327.815 163.5,327.5C 159.649,328.809 155.649,328.809 151.5,327.5C 151.624,326.893 151.957,326.56 152.5,326.5 Z"/></g>
<g><path style="opacity:1" fill="#696969" d="M 186.5,325.5 C 190.173,327.318 194.173,327.984 198.5,327.5C 194.702,328.483 190.702,328.817 186.5,328.5C 186.5,327.5 186.5,326.5 186.5,325.5 Z"/></g>
<g><path style="opacity:1" fill="#626262" d="M 258.5,204.5 C 258.5,245.5 258.5,286.5 258.5,327.5C 269.167,327.5 279.833,327.5 290.5,327.5C 290.5,324.167 290.5,320.833 290.5,317.5C 283.313,317.825 276.313,317.491 269.5,316.5C 276.833,316.5 284.167,316.5 291.5,316.5C 291.5,320.5 291.5,324.5 291.5,328.5C 280.167,328.5 268.833,328.5 257.5,328.5C 257.168,286.997 257.501,245.663 258.5,204.5 Z"/></g>
<g><path style="opacity:1" fill="#737373" d="M 324.5,325.5 C 327.684,327.414 331.351,328.08 335.5,327.5C 331.702,328.483 327.702,328.817 323.5,328.5C 323.263,327.209 323.596,326.209 324.5,325.5 Z"/></g>
<g><path style="opacity:1" fill="#6b6b6b" d="M 369.5,321.5 C 370.468,323.607 370.802,325.941 370.5,328.5C 366.5,328.5 362.5,328.5 358.5,328.5C 358.5,327.167 358.5,325.833 358.5,324.5C 359.404,325.209 359.737,326.209 359.5,327.5C 362.833,327.5 366.167,327.5 369.5,327.5C 369.5,325.5 369.5,323.5 369.5,321.5 Z"/></g>
<g><path style="opacity:1" fill="#1a1a1a" d="M 50.5,352.5 C 53.3245,352.081 55.4912,353.081 57,355.5C 76.2051,420.145 115.038,468.978 173.5,502C 233.04,533.06 295.04,539.06 359.5,520C 440.496,491.67 493.663,436.504 519,354.5C 523.654,351.576 526.821,352.742 528.5,358C 503.429,440.739 450.429,497.406 369.5,528C 285.538,554.198 207.871,541.865 136.5,491C 92.006,456.86 62.3393,412.694 47.5,358.5C 47.0728,355.644 48.0728,353.644 50.5,352.5 Z M 271.5,384.5 C 272.301,386.042 272.634,387.708 272.5,389.5C 270.786,390.738 268.786,391.405 266.5,391.5C 266.5,388.833 266.5,386.167 266.5,383.5C 268.216,383.629 269.883,383.962 271.5,384.5 Z M 366.5,384.5 C 372.493,383.826 375.159,386.493 374.5,392.5C 375.271,398.649 372.604,401.649 366.5,401.5C 366.5,395.833 366.5,390.167 366.5,384.5 Z M 344.5,387.5 C 345.167,387.833 345.833,388.167 346.5,388.5C 346.366,390.292 346.699,391.958 347.5,393.5C 346.817,395.176 345.483,395.843 343.5,395.5C 343.5,394.5 343.5,393.5 343.5,392.5C 344.301,390.958 344.634,389.292 344.5,387.5 Z M 395.5,387.5 C 395.366,389.292 395.699,390.958 396.5,392.5C 396.5,393.5 396.5,394.5 396.5,395.5C 394.517,395.843 393.183,395.176 392.5,393.5C 393.301,391.958 393.634,390.292 393.5,388.5C 394.167,388.167 394.833,387.833 395.5,387.5 Z"/></g>
<g><path style="opacity:1" fill="#df391e" d="M 153.5,375.5 C 165.713,374.051 172.713,379.384 174.5,391.5C 174.072,395.62 172.572,399.287 170,402.5C 166,406.5 162,410.5 158,414.5C 154,410.5 150,406.5 146,402.5C 139.012,390.781 141.512,381.781 153.5,375.5 Z"/></g>
<g><path style="opacity:1" fill="#222222" d="M 293.5,377.5 C 297.978,377.437 301.978,378.77 305.5,381.5C 304.5,383.167 303.167,384.5 301.5,385.5C 293.673,381.959 289.673,384.625 289.5,393.5C 289.596,399.951 292.596,402.617 298.5,401.5C 298.5,399.5 298.5,397.5 298.5,395.5C 297.167,395.5 295.833,395.5 294.5,395.5C 294.5,393.833 294.5,392.167 294.5,390.5C 298.167,390.5 301.833,390.5 305.5,390.5C 305.827,395.544 305.494,400.544 304.5,405.5C 287.263,410.769 280.097,404.435 283,386.5C 284.884,381.439 288.384,378.439 293.5,377.5 Z"/></g>
<g><path style="opacity:1" fill="#7c7c7c" d="M 350.5,380.5 C 347.167,379.167 343.833,379.167 340.5,380.5C 341.694,379.223 343.36,378.556 345.5,378.5C 347.64,378.556 349.306,379.223 350.5,380.5 Z"/></g>
<g><path style="opacity:1" fill="#6a6a6a" d="M 390.5,379.5 C 391.793,378.842 393.293,378.508 395,378.5C 396.986,378.569 398.486,379.235 399.5,380.5C 396.609,379.597 393.609,379.264 390.5,379.5 Z"/></g>
<g><path style="opacity:1" fill="#999999" d="M 214.5,389.5 C 213.521,386.375 213.187,383.042 213.5,379.5C 211.5,379.5 209.5,379.5 207.5,379.5C 207.5,388.5 207.5,397.5 207.5,406.5C 209.5,406.5 211.5,406.5 213.5,406.5C 211.393,407.468 209.059,407.802 206.5,407.5C 206.5,397.833 206.5,388.167 206.5,378.5C 209.167,378.5 211.833,378.5 214.5,378.5C 214.5,382.167 214.5,385.833 214.5,389.5 Z"/></g>
<g><path style="opacity:1" fill="#020202" d="M 214.5,389.5 C 216.833,389.5 219.167,389.5 221.5,389.5C 222.479,386.375 222.813,383.042 222.5,379.5C 224.5,379.5 226.5,379.5 228.5,379.5C 228.5,388.5 228.5,397.5 228.5,406.5C 226.5,406.5 224.5,406.5 222.5,406.5C 222.817,402.298 222.483,398.298 221.5,394.5C 218.833,394.5 216.167,394.5 213.5,394.5C 213.5,398.5 213.5,402.5 213.5,406.5C 211.5,406.5 209.5,406.5 207.5,406.5C 207.5,397.5 207.5,388.5 207.5,379.5C 209.5,379.5 211.5,379.5 213.5,379.5C 213.187,383.042 213.521,386.375 214.5,389.5 Z"/></g>
<g><path style="opacity:1" fill="#636363" d="M 228.5,379.5 C 226.5,379.5 224.5,379.5 222.5,379.5C 222.813,383.042 222.479,386.375 221.5,389.5C 221.5,385.833 221.5,382.167 221.5,378.5C 224.059,378.198 226.393,378.532 228.5,379.5 Z"/></g>
<g><path style="opacity:1" fill="#111111" d="M 240.5,399.5 C 241.134,400.947 242.301,401.613 244,401.5C 245.699,401.613 246.866,400.947 247.5,399.5C 248.491,393.021 248.824,386.354 248.5,379.5C 250.5,379.5 252.5,379.5 254.5,379.5C 254.5,386.5 254.5,393.5 254.5,400.5C 253.177,405.922 249.677,408.255 244,407.5C 238.323,408.255 234.823,405.922 233.5,400.5C 233.5,393.5 233.5,386.5 233.5,379.5C 235.5,379.5 237.5,379.5 239.5,379.5C 239.176,386.354 239.509,393.021 240.5,399.5 Z"/></g>
<g><path style="opacity:1" fill="#acacac" d="M 240.5,399.5 C 239.509,393.021 239.176,386.354 239.5,379.5C 237.5,379.5 235.5,379.5 233.5,379.5C 233.5,386.5 233.5,393.5 233.5,400.5C 232.508,393.352 232.175,386.019 232.5,378.5C 235.167,378.5 237.833,378.5 240.5,378.5C 240.5,385.5 240.5,392.5 240.5,399.5 Z"/></g>
<g><path style="opacity:1" fill="#a8a8a8" d="M 254.5,400.5 C 254.5,393.5 254.5,386.5 254.5,379.5C 252.5,379.5 250.5,379.5 248.5,379.5C 248.824,386.354 248.491,393.021 247.5,399.5C 247.5,392.5 247.5,385.5 247.5,378.5C 250.167,378.5 252.833,378.5 255.5,378.5C 255.825,386.019 255.492,393.352 254.5,400.5 Z"/></g>
<g><path style="opacity:1" fill="#4f4f4f" d="M 274.5,379.5 C 269.833,379.5 265.167,379.5 260.5,379.5C 260.5,388.5 260.5,397.5 260.5,406.5C 262.5,406.5 264.5,406.5 266.5,406.5C 264.393,407.468 262.059,407.802 259.5,407.5C 259.5,397.833 259.5,388.167 259.5,378.5C 264.695,378.179 269.695,378.513 274.5,379.5 Z"/></g>
<g><path style="opacity:1" fill="#161616" d="M 274.5,379.5 C 275.609,379.557 276.609,379.89 277.5,380.5C 277.427,382.027 278.094,383.027 279.5,383.5C 281.57,388.418 280.237,392.252 275.5,395C 277.728,398.388 279.728,401.888 281.5,405.5C 279.393,406.468 277.059,406.802 274.5,406.5C 272.176,403.196 269.843,399.862 267.5,396.5C 266.513,399.768 266.18,403.102 266.5,406.5C 264.5,406.5 262.5,406.5 260.5,406.5C 260.5,397.5 260.5,388.5 260.5,379.5C 265.167,379.5 269.833,379.5 274.5,379.5 Z M 271.5,384.5 C 272.301,386.042 272.634,387.708 272.5,389.5C 270.786,390.738 268.786,391.405 266.5,391.5C 266.5,388.833 266.5,386.167 266.5,383.5C 268.216,383.629 269.883,383.962 271.5,384.5 Z"/></g>
<g><path style="opacity:1" fill="#111111" d="M 309.5,379.5 C 311.5,379.5 313.5,379.5 315.5,379.5C 315.187,383.042 315.521,386.375 316.5,389.5C 319.167,389.5 321.833,389.5 324.5,389.5C 324.5,386.167 324.5,382.833 324.5,379.5C 326.5,379.5 328.5,379.5 330.5,379.5C 330.5,388.5 330.5,397.5 330.5,406.5C 328.5,406.5 326.5,406.5 324.5,406.5C 324.5,402.833 324.5,399.167 324.5,395.5C 321.833,395.5 319.167,395.5 316.5,395.5C 316.5,399.5 316.5,403.5 316.5,407.5C 314.167,407.5 311.833,407.5 309.5,407.5C 309.5,398.167 309.5,388.833 309.5,379.5 Z"/></g>
<g><path style="opacity:1" fill="#575757" d="M 309.5,379.5 C 311.607,378.532 313.941,378.198 316.5,378.5C 316.5,382.167 316.5,385.833 316.5,389.5C 315.521,386.375 315.187,383.042 315.5,379.5C 313.5,379.5 311.5,379.5 309.5,379.5 Z"/></g>
<g><path style="opacity:1" fill="#7b7b7b" d="M 324.5,379.5 C 326.607,378.532 328.941,378.198 331.5,378.5C 331.5,388.167 331.5,397.833 331.5,407.5C 328.941,407.802 326.607,407.468 324.5,406.5C 326.5,406.5 328.5,406.5 330.5,406.5C 330.5,397.5 330.5,388.5 330.5,379.5C 328.5,379.5 326.5,379.5 324.5,379.5 Z"/></g>
<g><path style="opacity:1" fill="#1b1b1b" d="M 350.5,380.5 C 353.036,388.776 355.37,397.109 357.5,405.5C 355.393,406.468 353.059,406.802 350.5,406.5C 349.699,404.958 349.366,403.292 349.5,401.5C 346.833,401.5 344.167,401.5 341.5,401.5C 341.371,403.216 341.038,404.883 340.5,406.5C 337.941,406.802 335.607,406.468 333.5,405.5C 335.63,397.109 337.964,388.776 340.5,380.5C 343.833,379.167 347.167,379.167 350.5,380.5 Z M 344.5,387.5 C 345.167,387.833 345.833,388.167 346.5,388.5C 346.366,390.292 346.699,391.958 347.5,393.5C 346.817,395.176 345.483,395.843 343.5,395.5C 343.5,394.5 343.5,393.5 343.5,392.5C 344.301,390.958 344.634,389.292 344.5,387.5 Z"/></g>
<g><path style="opacity:1" fill="#777777" d="M 372.5,379.5 C 368.5,379.5 364.5,379.5 360.5,379.5C 360.5,388.5 360.5,397.5 360.5,406.5C 363.833,406.5 367.167,406.5 370.5,406.5C 367.038,407.482 363.371,407.815 359.5,407.5C 359.5,397.833 359.5,388.167 359.5,378.5C 364.032,378.182 368.366,378.515 372.5,379.5 Z"/></g>
<g><path style="opacity:1" fill="#181818" d="M 372.5,379.5 C 379.515,380.862 382.848,385.196 382.5,392.5C 383.098,401.229 379.098,405.896 370.5,406.5C 367.167,406.5 363.833,406.5 360.5,406.5C 360.5,397.5 360.5,388.5 360.5,379.5C 364.5,379.5 368.5,379.5 372.5,379.5 Z M 366.5,384.5 C 366.5,390.167 366.5,395.833 366.5,401.5C 372.604,401.649 375.271,398.649 374.5,392.5C 375.159,386.493 372.493,383.826 366.5,384.5 Z"/></g>
<g><path style="opacity:1" fill="#1e1e1e" d="M 390.5,379.5 C 393.609,379.264 396.609,379.597 399.5,380.5C 402.233,388.367 404.566,396.367 406.5,404.5C 404.643,406.845 402.31,407.178 399.5,405.5C 398.766,404.292 398.433,402.959 398.5,401.5C 395.833,401.5 393.167,401.5 390.5,401.5C 390.643,403.262 390.309,404.929 389.5,406.5C 387.257,407.474 384.924,407.808 382.5,407.5C 384.252,397.814 386.918,388.481 390.5,379.5 Z M 395.5,387.5 C 395.366,389.292 395.699,390.958 396.5,392.5C 396.5,393.5 396.5,394.5 396.5,395.5C 394.517,395.843 393.183,395.176 392.5,393.5C 393.301,391.958 393.634,390.292 393.5,388.5C 394.167,388.167 394.833,387.833 395.5,387.5 Z"/></g>
<g><path style="opacity:1" fill="#838383" d="M 277.5,380.5 C 278.906,380.973 279.573,381.973 279.5,383.5C 278.094,383.027 277.427,382.027 277.5,380.5 Z"/></g>
<g><path style="opacity:1" fill="#aaaaaa" d="M 395.5,387.5 C 394.833,387.833 394.167,388.167 393.5,388.5C 394.066,384.194 394.732,383.861 395.5,387.5 Z"/></g>
<g><path style="opacity:0.912" fill="#b0b0b0" d="M 271.5,384.5 C 272.649,384.791 273.316,385.624 273.5,387C 273.472,388.07 273.139,388.903 272.5,389.5C 272.634,387.708 272.301,386.042 271.5,384.5 Z"/></g>
<g><path style="opacity:1" fill="#b4b4b4" d="M 346.5,388.5 C 345.833,388.167 345.167,387.833 344.5,387.5C 345.268,383.861 345.934,384.194 346.5,388.5 Z"/></g>
<g><path style="opacity:0.161" fill="#e2e2e2" d="M 221.5,394.5 C 221.5,394.833 221.5,395.167 221.5,395.5C 219.167,395.5 216.833,395.5 214.5,395.5C 214.815,399.371 214.482,403.038 213.5,406.5C 213.5,402.5 213.5,398.5 213.5,394.5C 216.167,394.5 218.833,394.5 221.5,394.5 Z"/></g>
<g><path style="opacity:1" fill="#7e7e7e" d="M 221.5,394.5 C 222.483,398.298 222.817,402.298 222.5,406.5C 224.5,406.5 226.5,406.5 228.5,406.5C 226.393,407.468 224.059,407.802 221.5,407.5C 221.5,403.5 221.5,399.5 221.5,395.5C 221.5,395.167 221.5,394.833 221.5,394.5 Z"/></g>
<g><path style="opacity:1" fill="#6c6c6c" d="M 343.5,392.5 C 343.5,393.5 343.5,394.5 343.5,395.5C 345.483,395.843 346.817,395.176 347.5,393.5C 348.404,394.209 348.737,395.209 348.5,396.5C 346.5,396.5 344.5,396.5 342.5,396.5C 342.232,394.901 342.566,393.568 343.5,392.5 Z"/></g>
<g><path style="opacity:1" fill="#6d6d6d" d="M 396.5,392.5 C 397.434,393.568 397.768,394.901 397.5,396.5C 395.5,396.5 393.5,396.5 391.5,396.5C 391.263,395.209 391.596,394.209 392.5,393.5C 393.183,395.176 394.517,395.843 396.5,395.5C 396.5,394.5 396.5,393.5 396.5,392.5 Z"/></g>
<g><path style="opacity:0.714" fill="#e1e1e1" d="M 281.5,405.5 C 282.043,405.56 282.376,405.893 282.5,406.5C 279.691,407.8 277.024,407.8 274.5,406.5C 277.059,406.802 279.393,406.468 281.5,405.5 Z"/></g>
<g><path style="opacity:0.714" fill="#e2e2e2" d="M 333.5,405.5 C 335.607,406.468 337.941,406.802 340.5,406.5C 337.976,407.8 335.309,407.8 332.5,406.5C 332.624,405.893 332.957,405.56 333.5,405.5 Z"/></g>
<g><path style="opacity:0.714" fill="#e1e1e1" d="M 357.5,405.5 C 358.043,405.56 358.376,405.893 358.5,406.5C 355.691,407.8 353.024,407.8 350.5,406.5C 353.059,406.802 355.393,406.468 357.5,405.5 Z"/></g>
<g><path style="opacity:0.714" fill="#d5d5d5" d="M 406.5,404.5 C 407.404,405.209 407.737,406.209 407.5,407.5C 404.302,408.036 401.635,407.369 399.5,405.5C 402.31,407.178 404.643,406.845 406.5,404.5 Z"/></g>
</svg>
